<svg width="20" height="20" viewBox="0 0 20 20" fill="none" xmlns="http://www.w3.org/2000/svg">
<path d="M18.3334 14.1667V11.6667M18.3334 11.6667H1.66675M18.3334 11.6667H10.0001V7.50004H15.8334C16.4965 7.50004 17.1323 7.76343 17.6012 8.23227C18.07 8.70111 18.3334 9.337 18.3334 10V11.6667ZM1.66675 6.66671V14.1667M4.16675 7.50004C4.16675 7.94207 4.34234 8.36599 4.6549 8.67855C4.96746 8.99111 5.39139 9.16671 5.83341 9.16671C6.27544 9.16671 6.69936 8.99111 7.01192 8.67855C7.32449 8.36599 7.50008 7.94207 7.50008 7.50004C7.50008 7.05801 7.32449 6.63409 7.01192 6.32153C6.69936 6.00897 6.27544 5.83337 5.83341 5.83337C5.39139 5.83337 4.96746 6.00897 4.6549 6.32153C4.34234 6.63409 4.16675 7.05801 4.16675 7.50004Z" stroke="#7A28FF" stroke-width="1.66667" stroke-linecap="round" stroke-linejoin="round"/>
</svg>
