<svg width="20" height="20" viewBox="0 0 20 20" fill="none" xmlns="http://www.w3.org/2000/svg">
<path d="M9.16667 4.16667C9.16667 5.0875 8.0475 5.83333 6.66667 5.83333C5.28583 5.83333 4.16667 5.0875 4.16667 4.16667C4.16667 3.24583 5.28583 2.5 6.66667 2.5C8.0475 2.5 9.16667 3.24583 9.16667 4.16667ZM9.16667 4.16667H16.6667M3.33333 9.16667H16.6667C16.8877 9.16667 17.0996 9.25446 17.2559 9.41074C17.4122 9.56702 17.5 9.77899 17.5 10V10.4167C17.5 11.6667 15.4025 15.0608 14.1667 15.8333V16.6667C14.1667 16.8877 14.0789 17.0996 13.9226 17.2559C13.7663 17.4122 13.5543 17.5 13.3333 17.5H6.66667C6.44565 17.5 6.23369 17.4122 6.07741 17.2559C5.92113 17.0996 5.83333 16.8877 5.83333 16.6667V15.8333C4.4275 14.955 2.5 11.6667 2.5 10.4167V10C2.5 9.77899 2.5878 9.56702 2.74408 9.41074C2.90036 9.25446 3.11232 9.16667 3.33333 9.16667Z" stroke="#7A28FF" stroke-width="1.66667" stroke-linecap="round" stroke-linejoin="round"/>
</svg>
