<svg width="28" height="28" viewBox="0 0 28 28" fill="none" xmlns="http://www.w3.org/2000/svg">
<path fill-rule="evenodd" clip-rule="evenodd" d="M4.33687 23.02H11.126C16.2568 23.02 18.4334 20.9211 18.4334 17.5783C18.4334 15.4016 17.2415 13.6914 14.8575 13.0436C16.5677 12.3439 17.4747 10.7632 17.4747 8.89753C17.4747 6.07303 15.4276 4 10.8669 4H4.33687C4.12956 4 4 4.12956 4 4.33687V22.6832C4 22.8905 4.12956 23.02 4.33687 23.02ZM7.49823 11.6702V7.26502H10.7373C12.7326 7.26502 13.8987 8.0424 13.8987 9.46761C13.8987 10.9187 12.7326 11.6702 10.7373 11.6702H7.49823ZM7.49823 19.755V14.8316H11.2297C13.5618 14.8316 14.8057 15.6867 14.8057 17.2674C14.8057 18.874 13.5618 19.755 11.2297 19.755H7.49823ZM22 23C23.1046 23 24 22.1046 24 21C24 19.8954 23.1046 19 22 19C20.8954 19 20 19.8954 20 21C20 22.1046 20.8954 23 22 23Z" fill="url(#paint0_linear_58_1707)"/>
<defs>
<linearGradient id="paint0_linear_58_1707" x1="4" y1="14" x2="25" y2="14" gradientUnits="userSpaceOnUse">
<stop stop-color="#C228FF"/>
<stop offset="1" stop-color="#361ED4"/>
</linearGradient>
</defs>
</svg>
