<svg width="20" height="20" viewBox="0 0 20 20" fill="none" xmlns="http://www.w3.org/2000/svg">
<path d="M5 8.33332C4.99929 7.43405 5.2065 6.5468 5.60544 5.74086C6.00438 4.93493 6.58425 4.23215 7.29975 3.68741C8.01525 3.14267 8.847 2.77073 9.73004 2.60065C10.6131 2.43056 11.5235 2.46694 12.3901 2.70694C13.2568 2.94693 14.0562 3.38405 14.726 3.98414C15.3957 4.58422 15.9177 5.33103 16.251 6.16623C16.5844 7.00142 16.7202 7.90238 16.6477 8.79872C16.5752 9.69506 16.2965 10.5625 15.8333 11.3333C15.3596 11.965 14.7984 12.5262 14.1667 13C13.4281 13.6956 12.8581 14.5507 12.5 15.5C12.2414 15.9887 11.8779 16.4141 11.4357 16.7459C10.9934 17.0777 10.4832 17.3075 9.94166 17.419C9.40013 17.5305 8.84065 17.5209 8.30328 17.3908C7.7659 17.2607 7.26394 17.0134 6.83334 16.6667" stroke="#7A28FF" stroke-width="1.6" stroke-linecap="round" stroke-linejoin="round"/>
<path d="M8.33343 8.3333C8.32843 7.91506 8.42844 7.50225 8.62432 7.13268C8.82019 6.7631 9.10566 6.44858 9.45458 6.21792C9.8035 5.98725 10.2047 5.84782 10.6215 5.81239C11.0383 5.77696 11.4572 5.84666 11.8401 6.01512C12.2229 6.18357 12.5574 6.44539 12.8129 6.7766C13.0683 7.1078 13.2366 7.49781 13.3022 7.91089C13.3679 8.32397 13.3289 8.74693 13.1888 9.14103C13.0486 9.53512 12.8118 9.88776 12.5001 10.1666" stroke="#444549" stroke-width="1.6" stroke-linecap="round" stroke-linejoin="round"/>
</svg>
