<svg width="20" height="20" viewBox="0 0 20 20" fill="none" xmlns="http://www.w3.org/2000/svg">
<path d="M6.66667 3.33331H5L2.5 11.6666V13.75M13.3333 3.33331H15L17.5 11.6666V13.75M8.33333 13.3333H11.6667" stroke="#444549" stroke-width="1.6" stroke-linecap="round" stroke-linejoin="round"/>
<path d="M11.6667 13.75C11.6667 14.5235 11.974 15.2654 12.5209 15.8124C13.0679 16.3594 13.8098 16.6666 14.5833 16.6666C15.3569 16.6666 16.0987 16.3594 16.6457 15.8124C17.1927 15.2654 17.5 14.5235 17.5 13.75C17.5 12.9764 17.1927 12.2346 16.6457 11.6876C16.0987 11.1406 15.3569 10.8333 14.5833 10.8333C13.8098 10.8333 13.0679 11.1406 12.5209 11.6876C11.974 12.2346 11.6667 12.9764 11.6667 13.75ZM2.5 13.75C2.5 14.133 2.57544 14.5123 2.72202 14.8661C2.86859 15.22 3.08343 15.5415 3.35427 15.8124C3.62511 16.0832 3.94664 16.2981 4.30051 16.4446C4.65437 16.5912 5.03364 16.6666 5.41667 16.6666C5.79969 16.6666 6.17896 16.5912 6.53283 16.4446C6.88669 16.2981 7.20822 16.0832 7.47906 15.8124C7.7499 15.5415 7.96474 15.22 8.11132 14.8661C8.25789 14.5123 8.33333 14.133 8.33333 13.75C8.33333 13.367 8.25789 12.9877 8.11132 12.6338C7.96474 12.28 7.7499 11.9584 7.47906 11.6876C7.20822 11.4167 6.88669 11.2019 6.53283 11.0553C6.17896 10.9088 5.79969 10.8333 5.41667 10.8333C5.03364 10.8333 4.65437 10.9088 4.30051 11.0553C3.94664 11.2019 3.62511 11.4167 3.35427 11.6876C3.08343 11.9584 2.86859 12.28 2.72202 12.6338C2.57544 12.9877 2.5 13.367 2.5 13.75Z" stroke="#444549" stroke-width="1.6" stroke-linecap="round" stroke-linejoin="round"/>
</svg>
