<svg width="20" height="20" viewBox="0 0 20 20" fill="none" xmlns="http://www.w3.org/2000/svg">
<path d="M7.5 4.16667C7.5 4.60869 7.6756 5.03262 7.98816 5.34518C8.30072 5.65774 8.72464 5.83333 9.16667 5.83333C9.60869 5.83333 10.0326 5.65774 10.3452 5.34518C10.6577 5.03262 10.8333 4.60869 10.8333 4.16667C10.8333 3.72464 10.6577 3.30072 10.3452 2.98816C10.0326 2.67559 9.60869 2.5 9.16667 2.5C8.72464 2.5 8.30072 2.67559 7.98816 2.98816C7.6756 3.30072 7.5 3.72464 7.5 4.16667Z" stroke="#444549" stroke-width="1.6" stroke-linecap="round" stroke-linejoin="round"/>
<path d="M9.16676 5.83331V12.5H12.5001L15.8334 16.6666M9.16676 9.16665H13.3334M5.83342 9.58331C5.23633 9.83058 4.70495 10.2134 4.28128 10.7014C3.8576 11.1894 3.55325 11.7693 3.39229 12.3952C3.23133 13.0211 3.21817 13.6758 3.35384 14.3077C3.48952 14.9395 3.77032 15.5312 4.17403 16.0358C4.57775 16.5405 5.09332 16.9443 5.67999 17.2154C6.26666 17.4864 6.90834 17.6173 7.5543 17.5977C8.20027 17.578 8.83281 17.4084 9.40192 17.1022C9.97103 16.796 10.4611 16.3616 10.8334 15.8333" stroke="#444549" stroke-width="1.6" stroke-linecap="round" stroke-linejoin="round"/>
</svg>
