<svg width="20" height="20" viewBox="0 0 20 20" fill="none" xmlns="http://www.w3.org/2000/svg">
<path d="M9.99992 4.99998C9.99992 5.44201 10.1755 5.86593 10.4881 6.17849C10.8006 6.49105 11.2246 6.66665 11.6666 6.66665C12.1086 6.66665 12.5325 6.49105 12.8451 6.17849C13.1577 5.86593 13.3333 5.44201 13.3333 4.99998M9.99992 4.99998C9.99992 4.55795 10.1755 4.13403 10.4881 3.82147C10.8006 3.50891 11.2246 3.33331 11.6666 3.33331C12.1086 3.33331 12.5325 3.50891 12.8451 3.82147C13.1577 4.13403 13.3333 4.55795 13.3333 4.99998M9.99992 4.99998H3.33325M13.3333 4.99998H16.6666M4.99992 9.99998C4.99992 10.442 5.17551 10.8659 5.48807 11.1785C5.80063 11.4911 6.22456 11.6666 6.66658 11.6666C7.10861 11.6666 7.53254 11.4911 7.8451 11.1785C8.15766 10.8659 8.33325 10.442 8.33325 9.99998M4.99992 9.99998C4.99992 9.55795 5.17551 9.13403 5.48807 8.82147C5.80063 8.50891 6.22456 8.33331 6.66658 8.33331C7.10861 8.33331 7.53254 8.50891 7.8451 8.82147C8.15766 9.13403 8.33325 9.55795 8.33325 9.99998M4.99992 9.99998H3.33325M8.33325 9.99998H16.6666M12.4999 15C12.4999 15.442 12.6755 15.8659 12.9881 16.1785C13.3006 16.4911 13.7246 16.6666 14.1666 16.6666C14.6086 16.6666 15.0325 16.4911 15.3451 16.1785C15.6577 15.8659 15.8333 15.442 15.8333 15M12.4999 15C12.4999 14.558 12.6755 14.134 12.9881 13.8215C13.3006 13.5089 13.7246 13.3333 14.1666 13.3333C14.6086 13.3333 15.0325 13.5089 15.3451 13.8215C15.6577 14.134 15.8333 14.558 15.8333 15M12.4999 15H3.33325M15.8333 15H16.6666" stroke="#444549" stroke-width="1.66667" stroke-linecap="round" stroke-linejoin="round"/>
</svg>
