<svg width="24" height="24" viewBox="0 0 24 24" fill="none" xmlns="http://www.w3.org/2000/svg">
<rect x="4" y="3.5" width="11" height="17" rx="1" fill="#00C0E1"/>
<path d="M8.14746 7.79412C8.14746 8.13734 8.28381 8.4665 8.5265 8.7092C8.76919 8.95189 9.09836 9.08824 9.44158 9.08824C9.7848 9.08824 10.114 8.95189 10.3567 8.7092C10.5994 8.4665 10.7357 8.13734 10.7357 7.79412C10.7357 7.4509 10.5994 7.12173 10.3567 6.87904C10.114 6.63634 9.7848 6.5 9.44158 6.5C9.09836 6.5 8.76919 6.63634 8.5265 6.87904C8.28381 7.12173 8.14746 7.4509 8.14746 7.79412Z" fill="white"/>
<path d="M8.14706 14.2647V17.047C8.14706 17.2972 8.34985 17.5 8.6 17.5H10.2824C10.5325 17.5 10.7353 17.2972 10.7353 17.047V14.2647L11.3824 13.6176V11.0294C11.3824 10.8578 11.3142 10.6932 11.1928 10.5718C11.0715 10.4505 10.9069 10.3823 10.7353 10.3823H8.14706C7.97545 10.3823 7.81087 10.4505 7.68952 10.5718C7.56817 10.6932 7.5 10.8578 7.5 11.0294V13.6176L8.14706 14.2647Z" fill="white"/>
<path d="M17.7869 10.241C17.662 10.4408 17.8056 10.7 18.0413 10.7H20.9587C21.1944 10.7 21.338 10.4408 21.2131 10.241L19.7544 7.90704C19.6369 7.71904 19.3631 7.71904 19.2456 7.90704L17.7869 10.241Z" fill="#00C0E1"/>
<path d="M21.2131 12.759L19.7544 15.0929C19.6369 15.2809 19.3631 15.2809 19.2456 15.0929L17.7869 12.759C17.662 12.5592 17.8056 12.3 18.0413 12.3H20.9587C21.1944 12.3 21.338 12.5592 21.2131 12.759Z" fill="#00C0E1"/>
</svg>
