<svg width="24" height="24" viewBox="0 0 24 24" fill="none" xmlns="http://www.w3.org/2000/svg">
<rect x="4" y="4" width="16" height="16" rx="2" fill="#2F6FF8"/>
<path d="M8.5 17.0215V7H11.7471C12.9775 7 13.7796 7.05013 14.1533 7.15039C14.7275 7.30078 15.2083 7.62891 15.5957 8.13477C15.9831 8.63607 16.1768 9.28548 16.1768 10.083C16.1768 10.6982 16.0651 11.2155 15.8418 11.6348C15.6185 12.054 15.3337 12.3844 14.9873 12.626C14.6455 12.863 14.2969 13.0202 13.9414 13.0977C13.4583 13.1934 12.7588 13.2412 11.8428 13.2412H10.5234V17.0215H8.5ZM10.5234 8.69531V11.5391H11.6309C12.4284 11.5391 12.9616 11.4867 13.2305 11.3818C13.4993 11.277 13.709 11.113 13.8594 10.8896C14.0143 10.6663 14.0918 10.4066 14.0918 10.1104C14.0918 9.74577 13.9847 9.44499 13.7705 9.20801C13.5563 8.97103 13.2852 8.82292 12.957 8.76367C12.7155 8.7181 12.2301 8.69531 11.501 8.69531H10.5234Z" fill="white"/>
</svg>
