<svg width="75" height="47" viewBox="0 0 75 47" fill="none" xmlns="http://www.w3.org/2000/svg">
<mask id="path-1-outside-1_152_3982" maskUnits="userSpaceOnUse" x="0" y="0" width="75" height="47" fill="black">
<rect fill="white" width="75" height="47"/>
<path fill-rule="evenodd" clip-rule="evenodd" d="M17 2C8.71573 2 2 8.71573 2 17C2 25.2843 8.71573 32 17 32L28 32L36.3725 43.7215C37.1702 44.8382 38.8298 44.8382 39.6275 43.7215L48 32L28 32L58 32C66.2843 32 73 25.2843 73 17C73 8.71573 66.2843 2 58 2H17Z"/>
</mask>
<path fill-rule="evenodd" clip-rule="evenodd" d="M17 2C8.71573 2 2 8.71573 2 17C2 25.2843 8.71573 32 17 32L28 32L36.3725 43.7215C37.1702 44.8382 38.8298 44.8382 39.6275 43.7215L48 32L28 32L58 32C66.2843 32 73 25.2843 73 17C73 8.71573 66.2843 2 58 2H17Z" fill="#F22A2A"/>
<path d="M17 32V30V32ZM36.3725 43.7215L38 42.5591L36.3725 43.7215ZM39.6275 43.7215L41.2549 44.884L41.2549 44.884L39.6275 43.7215ZM48 32L49.6275 33.1625L51.8864 30H48V32ZM58 32V30V32ZM4 17C4 9.8203 9.8203 4 17 4V0C7.61116 0 0 7.61116 0 17H4ZM17 30C9.8203 30 4 24.1797 4 17H0C0 26.3888 7.61116 34 17 34V30ZM28 30L17 30V34H28V30ZM38 42.5591L29.6275 30.8375L26.3725 33.1625L34.7451 44.884L38 42.5591ZM38 42.5591L38 42.5591L34.7451 44.884C36.3404 47.1174 39.6597 47.1174 41.2549 44.884L38 42.5591ZM46.3725 30.8375L38 42.5591L41.2549 44.884L49.6275 33.1625L46.3725 30.8375ZM28 34L48 34V30L28 30V34ZM58 30L28 30V34H58V30ZM71 17C71 24.1797 65.1797 30 58 30V34C67.3888 34 75 26.3888 75 17H71ZM58 4C65.1797 4 71 9.8203 71 17H75C75 7.61116 67.3888 0 58 0V4ZM17 4H58V0H17V4Z" fill="white" mask="url(#path-1-outside-1_152_3982)"/>
<path d="M14 23.0001H26M14 15.6667H26M15.3333 13.0001L20 11.0001L24.6667 13.0001M14.6667 15.6667V23.0001M25.3333 15.6667V23.0001M17.3333 18.3334V20.3334M20 18.3334V20.3334M22.6667 18.3334V20.3334" stroke="white" stroke-width="1.28824" stroke-linecap="round" stroke-linejoin="round"/>
<path d="M35.4412 12.1641C36.8826 12.1641 37.9548 13.3535 38.1716 15.2695H40.0232V11.4141H41.4998V22.1016H40.0232V16.4648H38.1834C38.0252 18.5156 36.9295 19.7695 35.4412 19.7695C33.824 19.7695 32.6638 18.3047 32.6755 15.9609C32.6638 13.6406 33.824 12.1641 35.4412 12.1641ZM35.4412 13.5117C34.6443 13.5117 34.0935 14.3789 34.1052 15.9609C34.0935 17.5547 34.6443 18.4102 35.4412 18.4102C36.2498 18.4102 36.7771 17.5547 36.7771 15.9609C36.7771 14.3789 36.2498 13.5117 35.4412 13.5117ZM51.6191 11.4141V22.1016H50.1309V17.8008H48.3027V16.5703H50.1309V14.8945H48.3379V13.6758H50.1309V11.4141H51.6191ZM47.7754 12.3047V16.4062H44.4941V18.4805C45.8125 18.4746 46.9844 18.4102 48.3262 18.2109L48.4434 19.4297C46.8496 19.6875 45.4902 19.7109 43.8496 19.7109H43.0059V15.2461H46.3105V13.4883H42.9824V12.3047H47.7754ZM57.6252 11.5547C59.9924 11.5664 61.4924 12.3281 61.5041 13.6289C61.4924 14.8945 59.9924 15.6562 57.6252 15.6562C55.2698 15.6562 53.7346 14.8945 53.7346 13.6289C53.7346 12.3281 55.2698 11.5664 57.6252 11.5547ZM57.6252 12.7031C56.137 12.7031 55.2815 13.0078 55.2932 13.6289C55.2815 14.2148 56.137 14.5195 57.6252 14.5195C59.1018 14.5195 59.9573 14.2148 59.9573 13.6289C59.9573 13.0078 59.1018 12.7031 57.6252 12.7031ZM61.3284 18.3281V21.9609H53.887V18.3281H56.8752V17.4023H52.762V16.207H62.4885V17.4023H58.3635V18.3281H61.3284ZM55.3635 19.5117V20.7656H59.8635V19.5117H55.3635Z" fill="white"/>
</svg>
