<svg width="65" height="47" viewBox="0 0 65 47" fill="none" xmlns="http://www.w3.org/2000/svg">
<mask id="path-1-outside-1_152_3980" maskUnits="userSpaceOnUse" x="0" y="0" width="65" height="47" fill="black">
<rect fill="white" width="65" height="47"/>
<path fill-rule="evenodd" clip-rule="evenodd" d="M17 2C8.71573 2 2 8.71573 2 17C2 25.2843 8.71573 32 17 32L23 32L31.3725 43.7215C32.1702 44.8382 33.8298 44.8382 34.6275 43.7215L43 32H48C56.2843 32 63 25.2843 63 17C63 8.71573 56.2843 2 48 2H17Z"/>
</mask>
<path fill-rule="evenodd" clip-rule="evenodd" d="M17 2C8.71573 2 2 8.71573 2 17C2 25.2843 8.71573 32 17 32L23 32L31.3725 43.7215C32.1702 44.8382 33.8298 44.8382 34.6275 43.7215L43 32H48C56.2843 32 63 25.2843 63 17C63 8.71573 56.2843 2 48 2H17Z" fill="#00AE3A"/>
<path d="M17 32V34H17L17 32ZM23 32L24.6275 30.8375L24.0292 30H23V32ZM31.3725 43.7215L33 42.5591H33L31.3725 43.7215ZM34.6275 43.7215L36.2549 44.884L36.2549 44.884L34.6275 43.7215ZM43 32V30H41.9708L41.3725 30.8375L43 32ZM4 17C4 9.8203 9.8203 4 17 4V0C7.61116 0 0 7.61116 0 17H4ZM17 30C9.8203 30 4 24.1797 4 17H0C0 26.3888 7.61116 34 17 34V30ZM23 30L17 30L17 34L23 34V30ZM33 42.5591L24.6275 30.8375L21.3725 33.1625L29.7451 44.884L33 42.5591ZM33 42.5591V42.5591L29.7451 44.884C31.3404 47.1174 34.6597 47.1174 36.2549 44.884L33 42.5591ZM41.3725 30.8375L33 42.5591L36.2549 44.884L44.6275 33.1625L41.3725 30.8375ZM48 30H43V34H48V30ZM61 17C61 24.1797 55.1797 30 48 30V34C57.3888 34 65 26.3888 65 17H61ZM48 4C55.1797 4 61 9.8203 61 17H65C65 7.61116 57.3888 0 48 0V4ZM17 4H48V0H17V4Z" fill="white" mask="url(#path-1-outside-1_152_3980)"/>
<path d="M19.3333 12.3333C19.3333 13.07 18.438 13.6667 17.3333 13.6667C16.2287 13.6667 15.3333 13.07 15.3333 12.3333C15.3333 11.5967 16.2287 11 17.3333 11C18.438 11 19.3333 11.5967 19.3333 12.3333ZM19.3333 12.3333H25.3333M14.6667 16.3333H25.3333C25.5101 16.3333 25.6797 16.4036 25.8047 16.5286C25.9298 16.6536 26 16.8232 26 17V17.3333C26 18.3333 24.322 21.0487 23.3333 21.6667V22.3333C23.3333 22.5101 23.2631 22.6797 23.1381 22.8047C23.013 22.9298 22.8435 23 22.6667 23H17.3333C17.1565 23 16.987 22.9298 16.8619 22.8047C16.7369 22.6797 16.6667 22.5101 16.6667 22.3333V21.6667C15.542 20.964 14 18.3333 14 17.3333V17C14 16.8232 14.0702 16.6536 14.1953 16.5286C14.3203 16.4036 14.4899 16.3333 14.6667 16.3333Z" stroke="white" stroke-width="1.33333" stroke-linecap="round" stroke-linejoin="round"/>
<path d="M36.8544 12.4102C36.8544 13.5234 37.6161 14.543 39.3973 14.9297L38.7177 16.1016C37.4403 15.7969 36.5731 15.1582 36.0927 14.2969C35.6063 15.252 34.7157 15.9785 33.4091 16.3008L32.7059 15.1406C34.4989 14.7188 35.2958 13.5938 35.2958 12.4102V11.8477H36.8544V12.4102ZM41.5536 11.4258V22.0781H40.077V11.4258H41.5536ZM32.5887 16.9805C34.5106 16.9805 37.1591 16.957 39.4325 16.6289L39.5262 17.707C38.6473 17.877 37.745 17.9941 36.8544 18.0586V21.7617H35.3661V18.1523C34.4345 18.1934 33.5497 18.1992 32.7762 18.1992L32.5887 16.9805ZM47.5597 11.5547C49.9269 11.5664 51.4269 12.3281 51.4386 13.6289C51.4269 14.8945 49.9269 15.6562 47.5597 15.6562C45.2042 15.6562 43.6691 14.8945 43.6691 13.6289C43.6691 12.3281 45.2042 11.5664 47.5597 11.5547ZM47.5597 12.7031C46.0714 12.7031 45.2159 13.0078 45.2277 13.6289C45.2159 14.2148 46.0714 14.5195 47.5597 14.5195C49.0363 14.5195 49.8917 14.2148 49.8917 13.6289C49.8917 13.0078 49.0363 12.7031 47.5597 12.7031ZM51.2628 18.3281V21.9609H43.8214V18.3281H46.8097V17.4023H42.6964V16.207H52.423V17.4023H48.298V18.3281H51.2628ZM45.298 19.5117V20.7656H49.798V19.5117H45.298Z" fill="white"/>
</svg>
