<svg width="65" height="46" viewBox="0 0 65 46" fill="none" xmlns="http://www.w3.org/2000/svg">
<mask id="path-1-outside-1_152_3981" maskUnits="userSpaceOnUse" x="0" y="0" width="65" height="46" fill="black">
<rect fill="white" width="65" height="46"/>
<path fill-rule="evenodd" clip-rule="evenodd" d="M17 2C8.71573 2 2 8.71573 2 17C2 25.2843 8.71573 32 17 32H22.7143L30.3725 42.7215C31.1702 43.8382 32.8298 43.8382 33.6275 42.7215L41.2857 32H48C56.2843 32 63 25.2843 63 17C63 8.71573 56.2843 2 48 2H17Z"/>
</mask>
<path fill-rule="evenodd" clip-rule="evenodd" d="M17 2C8.71573 2 2 8.71573 2 17C2 25.2843 8.71573 32 17 32H22.7143L30.3725 42.7215C31.1702 43.8382 32.8298 43.8382 33.6275 42.7215L41.2857 32H48C56.2843 32 63 25.2843 63 17C63 8.71573 56.2843 2 48 2H17Z" fill="#F07400"/>
<path d="M22.7143 32L24.3418 30.8375L23.7435 30H22.7143V32ZM30.3725 42.7215L32 41.5591H32L30.3725 42.7215ZM33.6275 42.7215L35.2549 43.884L33.6275 42.7215ZM41.2857 32V30H40.2565L39.6582 30.8375L41.2857 32ZM4 17C4 9.8203 9.8203 4 17 4V0C7.61116 0 0 7.61116 0 17H4ZM17 30C9.8203 30 4 24.1797 4 17H0C0 26.3888 7.61116 34 17 34V30ZM22.7143 30H17V34H22.7143V30ZM32 41.5591L24.3418 30.8375L21.0868 33.1625L28.7451 43.884L32 41.5591ZM32 41.5591H32L28.7451 43.884C30.3403 46.1174 33.6597 46.1174 35.2549 43.884L32 41.5591ZM39.6582 30.8375L32 41.5591L35.2549 43.884L42.9132 33.1625L39.6582 30.8375ZM48 30H41.2857V34H48V30ZM61 17C61 24.1797 55.1797 30 48 30V34C57.3888 34 65 26.3888 65 17H61ZM48 4C55.1797 4 61 9.8203 61 17H65C65 7.61116 57.3888 0 48 0V4ZM17 4H48V0H17V4Z" fill="white" mask="url(#path-1-outside-1_152_3981)"/>
<path d="M26.6667 20.3334V18.3334M26.6667 18.3334H13.3334M26.6667 18.3334H20V15H24.6667C25.1971 15 25.7058 15.2107 26.0809 15.5858C26.456 15.9609 26.6667 16.4696 26.6667 17V18.3334ZM13.3334 14.3334V20.3334M15.3334 15C15.3334 15.3536 15.4738 15.6928 15.7239 15.9428C15.9739 16.1929 16.3131 16.3334 16.6667 16.3334C17.0203 16.3334 17.3595 16.1929 17.6095 15.9428C17.8596 15.6928 18 15.3536 18 15C18 14.6464 17.8596 14.3073 17.6095 14.0572C17.3595 13.8072 17.0203 13.6667 16.6667 13.6667C16.3131 13.6667 15.9739 13.8072 15.7239 14.0572C15.4738 14.3073 15.3334 14.6464 15.3334 15Z" stroke="white" stroke-width="1.33333" stroke-linecap="round" stroke-linejoin="round"/>
<path d="M42.327 19.6172V20.8359H32.5653V19.6172H36.6786V17.6484H33.5966V12.0938H35.0966V13.7461H39.7489V12.0938H41.2372V17.6484H38.1669V19.6172H42.327ZM35.0966 16.4531H39.7489V14.9414H35.0966V16.4531ZM52.423 16.9102V18.082H42.673V16.9102H46.798V16.2539H43.8917V11.6719H51.2863V12.8203H45.3917V13.418H51.0402V14.4961H45.3917V15.1055H51.38V16.2539H48.298V16.9102H52.423ZM47.548 18.5742C49.9034 18.5625 51.2511 19.1953 51.2628 20.3203C51.2511 21.4688 49.9034 22.0781 47.548 22.0781C45.1573 22.0781 43.8097 21.4688 43.8097 20.3203C43.8097 19.1953 45.1573 18.5625 47.548 18.5742ZM47.548 19.6758C46.0128 19.6758 45.298 19.875 45.3097 20.3203C45.298 20.7773 46.0128 20.9766 47.548 20.9766C49.048 20.9766 49.7511 20.7773 49.7628 20.3203C49.7511 19.875 49.048 19.6758 47.548 19.6758Z" fill="white"/>
</svg>
