<svg width="24" height="24" viewBox="0 0 24 24" fill="none" xmlns="http://www.w3.org/2000/svg">
<path fill-rule="evenodd" clip-rule="evenodd" d="M18.0261 3.90203C17.8741 3.63903 17.5781 3.41003 17.3101 3.41003C16.8301 3.41003 16.2131 3.89003 15.8401 4.18103C15.2811 4.61603 14.6291 5.02903 13.9291 5.17303C13.4111 5.27803 12.7931 5.19903 12.2471 5.05603C12.1571 5.03303 11.3831 4.76203 11.3831 4.76203C10.3111 4.26703 9.83508 5.67403 9.41208 6.36703C9.12208 6.84003 8.75708 7.40403 8.34208 7.97303C8.17637 7.95772 8.00945 7.98402 7.85646 8.04953C7.70348 8.11503 7.56926 8.21769 7.46598 8.34818C7.36269 8.47868 7.29361 8.63289 7.26499 8.79683C7.23637 8.96077 7.24912 9.12926 7.30208 9.28703C6.99408 9.6637 6.70175 10.0257 6.42508 10.373C6.23321 10.3189 6.02953 10.3233 5.8402 10.3858C5.65086 10.4482 5.48452 10.5658 5.36252 10.7235C5.24052 10.8812 5.16844 11.0717 5.15553 11.2707C5.14263 11.4696 5.18948 11.6679 5.29008 11.84C4.21808 13.273 3.48008 14.438 3.05408 15.475C2.69408 16.355 2.54008 17.178 2.60708 18.017C2.67408 18.844 2.94908 19.615 3.33408 20.393C3.85608 21.448 5.13608 21.737 6.07308 21.196L20.7951 12.696C21.2544 12.4308 21.5896 11.994 21.7269 11.4816C21.8642 10.9693 21.7923 10.4234 21.5271 9.96403L18.0261 3.90203ZM18.2941 8.36603L16.8751 5.90903C16.1111 6.45503 15.2581 6.94203 14.3301 7.13203C13.3761 7.32703 12.4111 7.16603 11.7431 6.99203C11.3321 6.88503 11.3391 7.04903 11.1181 7.41003C10.8661 7.82303 10.5541 8.30903 10.1981 8.81603L10.3091 8.87103C10.4276 8.92871 10.5336 9.00925 10.6209 9.10804C10.7083 9.20683 10.7752 9.32192 10.8179 9.44667C10.8605 9.57142 10.8781 9.70337 10.8696 9.83494C10.861 9.96651 10.8266 10.0951 10.7682 10.2133C10.7098 10.3315 10.6286 10.437 10.5292 10.5237C10.4299 10.6104 10.3144 10.6766 10.1894 10.7185C10.0644 10.7604 9.93232 10.7771 9.8008 10.7678C9.66929 10.7584 9.54092 10.7232 9.42308 10.664L8.95008 10.43C8.71208 10.7207 8.48542 11.0007 8.27008 11.27C8.49022 11.4023 8.651 11.6143 8.71912 11.8619C8.78724 12.1096 8.75746 12.3739 8.63596 12.6002C8.51447 12.8265 8.31056 12.9973 8.06651 13.0774C7.82246 13.1574 7.55698 13.1404 7.32508 13.03L7.01308 12.876C5.92708 14.313 5.26108 15.363 4.90308 16.234C4.63808 16.881 4.56308 17.388 4.60008 17.857C4.63708 18.323 4.79208 18.821 5.09808 19.449L19.7941 10.964L19.2941 10.098L14.9641 12.598C14.7345 12.7286 14.4627 12.763 14.2078 12.6938C13.953 12.6246 13.7358 12.4574 13.6038 12.2287C13.4718 12 13.4355 11.7284 13.503 11.4731C13.5705 11.2178 13.7363 10.9996 13.9641 10.866L18.2941 8.36603Z" fill="#444549"/>
</svg>
