<svg width="24" height="24" viewBox="0 0 24 24" fill="none" xmlns="http://www.w3.org/2000/svg">
<path d="M5 6C5 6.53043 5.21071 7.03914 5.58579 7.41421C5.96086 7.78929 6.46957 8 7 8C7.53043 8 8.03914 7.78929 8.41421 7.41421C8.78929 7.03914 9 6.53043 9 6C9 5.46957 8.78929 4.96086 8.41421 4.58579C8.03914 4.21071 7.53043 4 7 4C6.46957 4 5.96086 4.21071 5.58579 4.58579C5.21071 4.96086 5 5.46957 5 6Z" fill="#5F6BDE"/>
<path d="M5 16V20.3C5 20.6866 5.3134 21 5.7 21H8.3C8.6866 21 9 20.6866 9 20.3V16L10 15V11C10 10.7348 9.89464 10.4804 9.70711 10.2929C9.51957 10.1054 9.26522 10 9 10H5C4.73478 10 4.48043 10.1054 4.29289 10.2929C4.10536 10.4804 4 10.7348 4 11V15L5 16Z" fill="#5F6BDE"/>
<path d="M15 17V20.3C15 20.6866 15.3134 21 15.7 21H18.3C18.6866 21 19 20.6866 19 20.3V17H21L19 11C19 10.7348 18.8946 10.4804 18.7071 10.2929C18.5196 10.1054 18.2652 10 18 10H16C15.7348 10 15.4804 10.1054 15.2929 10.2929C15.1054 10.4804 15 10.7348 15 11L13 17H15Z" fill="#E44E4E"/>
<path d="M15.5858 7.41421C15.2107 7.03914 15 6.53043 15 6C15 5.46957 15.2107 4.96086 15.5858 4.58579C15.9609 4.21071 16.4696 4 17 4C17.5304 4 18.0391 4.21071 18.4142 4.58579C18.7893 4.96086 19 5.46957 19 6C19 6.53043 18.7893 7.03914 18.4142 7.41421C18.0391 7.78929 17.5304 8 17 8C16.4696 8 15.9609 7.78929 15.5858 7.41421Z" fill="#E44E4E"/>
</svg>
