<svg width="24" height="24" viewBox="0 0 24 24" fill="none" xmlns="http://www.w3.org/2000/svg">
<path d="M21 16C21 17.3261 20.4732 18.5979 19.5355 19.5355C18.5979 20.4732 17.3261 21 16 21C14.6739 21 13.4021 20.4732 12.4645 19.5355C11.5268 18.5979 11 17.3261 11 16C11 14.6739 11.5268 13.4021 12.4645 12.4645C13.4021 11.5268 14.6739 11 16 11C17.3261 11 18.5979 11.5268 19.5355 12.4645C20.4732 13.4021 21 14.6739 21 16ZM7 19C7 19.5304 6.78929 20.0391 6.41421 20.4142C6.03914 20.7893 5.53043 21 5 21C4.46957 21 3.96086 20.7893 3.58579 20.4142C3.21071 20.0391 3 19.5304 3 19C3 18.4696 3.21071 17.9609 3.58579 17.5858C3.96086 17.2107 4.46957 17 5 17C5.53043 17 6.03914 17.2107 6.41421 17.5858C6.78929 17.9609 7 18.4696 7 19Z" stroke="#444549" stroke-width="2" stroke-linecap="round" stroke-linejoin="round"/>
<path d="M5 17C5 16.2044 5.31607 15.4413 5.87868 14.8787C6.44129 14.3161 7.20435 14 8 14H11.4M21 3H20C19.4696 3 18.9609 3.21071 18.5858 3.58579C18.2107 3.96086 18 4.46957 18 5V11M18 8H7M9 8V14" stroke="#444549" stroke-width="2" stroke-linecap="round" stroke-linejoin="round"/>
</svg>
